<svg width="51" height="50" viewBox="0 0 51 50" fill="none" xmlns="http://www.w3.org/2000/svg">
<path d="M43.7715 50H6.27148C4.54622 50 3.07324 49.3896 1.85254 48.1689C0.631836 46.9482 0.0214844 45.4753 0.0214844 43.75V6.25C0.0214844 4.52474 0.631836 3.05176 1.85254 1.83105C3.07324 0.610352 4.54622 0 6.27148 0H43.7715C45.4967 0 46.9697 0.610352 48.1904 1.83105C49.4111 3.05176 50.0215 4.52474 50.0215 6.25V43.75C50.0215 45.4753 49.4111 46.9482 48.1904 48.1689C46.9697 49.3896 45.4967 50 43.7715 50V50ZM15.6465 35.9375C15.6465 35.5143 15.4919 35.1481 15.1826 34.8389C14.8734 34.5296 14.5072 34.375 14.084 34.375H10.959C10.5358 34.375 10.1696 34.5296 9.86035 34.8389C9.55111 35.1481 9.39648 35.5143 9.39648 35.9375V42.1875C9.39648 42.6107 9.55111 42.9769 9.86035 43.2861C10.1696 43.5954 10.5358 43.75 10.959 43.75H14.084C14.5072 43.75 14.8734 43.5954 15.1826 43.2861C15.4919 42.9769 15.6465 42.6107 15.6465 42.1875V35.9375ZM28.1465 23.4375C28.1465 23.0143 27.9919 22.6481 27.6826 22.3389C27.3734 22.0296 27.0072 21.875 26.584 21.875H23.459C23.0358 21.875 22.6696 22.0296 22.3604 22.3389C22.0511 22.6481 21.8965 23.0143 21.8965 23.4375V42.1875C21.8965 42.6107 22.0511 42.9769 22.3604 43.2861C22.6696 43.5954 23.0358 43.75 23.459 43.75H26.584C27.0072 43.75 27.3734 43.5954 27.6826 43.2861C27.9919 42.9769 28.1465 42.6107 28.1465 42.1875V23.4375ZM40.6465 7.8125C40.6465 7.38932 40.4919 7.02311 40.1826 6.71387C39.8734 6.40462 39.5072 6.25 39.084 6.25H35.959C35.5358 6.25 35.1696 6.40462 34.8604 6.71387C34.5511 7.02311 34.3965 7.38932 34.3965 7.8125V42.1875C34.3965 42.6107 34.5511 42.9769 34.8604 43.2861C35.1696 43.5954 35.5358 43.75 35.959 43.75H39.084C39.5072 43.75 39.8734 43.5954 40.1826 43.2861C40.4919 42.9769 40.6465 42.6107 40.6465 42.1875V7.8125Z" fill="white"/>
</svg>
