<svg width="50" height="50" viewBox="0 0 50 50" fill="none" xmlns="http://www.w3.org/2000/svg">
<path d="M37.2383 0.0250219C37.1075 -0.0937281 32.3959 0.071897 28.2959 3.68752C24.1959 7.30002 24.8267 11.4438 24.919 11.55C25.0113 11.6563 30.7652 11.8219 34.4383 7.61877C38.1113 3.41565 37.369 0.146897 37.2383 0.0250219V0.0250219ZM49.9845 36.6906C49.7998 36.3906 41.0421 32.8344 41.8575 25.9969C42.6729 19.1563 48.2998 17.2813 48.3883 17.0781C48.4768 16.875 46.0921 14.6094 43.5652 13.4625C41.7099 12.6539 39.6565 12.1907 37.5537 12.1063C37.1383 12.0969 35.696 11.8094 32.7306 12.4688C30.7767 12.9031 26.3729 14.3094 25.1613 14.3656C23.9459 14.4219 20.3305 12.7344 16.4421 12.2875C13.9536 11.8969 11.3151 12.6969 9.42666 13.3125C7.54204 13.925 3.95742 15.6688 1.44972 20.3031C-1.05798 24.9344 0.253561 32.2719 1.19203 34.5531C2.13049 36.8313 3.59588 40.5656 6.08819 43.2906C8.30358 46.3656 11.2421 48.5 12.469 49.225C13.6959 49.95 17.1574 50.4313 19.5575 49.4344C21.4882 48.4719 24.9729 47.9188 26.3498 47.9594C27.7229 48 30.4306 48.4406 33.2036 49.6438C35.3998 50.2594 37.4767 50.0031 39.5575 49.3156C41.6383 48.625 44.6498 46.0063 48.1652 40.6969C49.4998 38.2281 50.1075 36.8938 49.9845 36.6906V36.6906Z" fill="#0F222D"/>
</svg>
