<svg width="50" height="50" viewBox="0 0 50 50" fill="none" xmlns="http://www.w3.org/2000/svg">
<path d="M49.2501 31.0451C45.9117 44.4504 32.341 52.5883 18.9531 49.2522C5.56216 45.9396 -2.59465 32.3389 0.749972 18.9679C4.08052 5.56571 17.659 -2.58938 31.0391 0.746725C44.4379 4.0922 52.5947 17.6522 49.2501 31.0545V31.0451ZM36.0216 21.4352C36.5171 18.1226 33.9852 16.3334 30.5186 15.1287L31.6439 10.6425L28.8995 9.9503L27.8101 14.3458C27.0927 14.1583 26.3457 13.9958 25.5955 13.8255L26.688 9.38933L23.9357 8.70649L22.8119 13.2145L21.0615 12.8004L17.2855 11.8551L16.5525 14.7943C16.5525 14.7943 18.589 15.2568 18.539 15.2818C19.6564 15.5678 19.8581 16.2897 19.8268 16.8772L16.7494 29.2137C16.5947 29.5575 16.2446 30.0622 15.4725 29.8653C15.4975 29.9044 13.4705 29.37 13.4705 29.37L12.0951 32.5092L15.6601 33.3968L17.5965 33.9015L16.465 38.4689L19.2173 39.1439L20.3488 34.6265C21.0974 34.839 21.8132 35.025 22.5291 35.1968L21.4725 39.6799L24.2232 40.3721L25.3548 35.8078C30.0263 36.6938 33.5444 36.3438 35.0261 32.1123C36.2139 28.7012 34.9588 26.7417 32.4941 25.4557C34.268 25.0479 35.62 23.8682 35.9935 21.4352H36.0216ZM29.745 30.2325C28.9073 33.6499 23.1683 31.7951 21.3053 31.331L22.8104 25.2932C24.6749 25.7729 30.6327 26.6917 29.745 30.2325ZM30.6015 21.3946C29.8263 24.5026 25.0563 22.9322 23.5012 22.54L24.8703 17.0397C26.416 17.4132 31.4048 18.1288 30.6015 21.3852V21.3946Z" fill="#0F222D"/>
</svg>
