<svg width="50" height="50" viewBox="0 0 50 50" fill="none" xmlns="http://www.w3.org/2000/svg">
<path d="M23.7171 31.8218C26.0316 31.8135 31.0921 31.7947 31.0337 28.576C30.9775 25.2843 26.1171 25.4822 23.7483 25.5802C23.4837 25.5906 23.2483 25.601 23.0566 25.6031L23.165 31.826C23.3212 31.8218 23.5087 31.8218 23.7171 31.8218V31.8218Z" fill="white"/>
<path d="M23.4712 22.7531C25.4024 22.751 29.617 22.7468 29.567 19.8197C29.5129 16.826 25.4649 17.0031 23.4879 17.0906C23.2649 17.101 23.0712 17.1093 22.9087 17.1114L23.0066 22.7552L23.4712 22.7531Z" fill="white"/>
<path fill-rule="evenodd" clip-rule="evenodd" d="M18.9483 49.251C32.3441 52.5906 45.9108 44.4385 49.2504 31.0469C52.59 17.6531 44.4358 4.08647 31.04 0.748969C17.6525 -2.5927 4.08581 5.56147 0.748309 18.9573C-2.59127 32.349 5.56081 45.9156 18.9504 49.2531L18.9483 49.251ZM27.8691 13.7927C31.5233 14.0511 34.4316 15.1219 34.8129 18.4635C35.0962 20.9094 34.0962 22.399 32.4733 23.2615C35.1816 23.8615 36.9004 25.4344 36.6296 29.0344C36.2941 33.5031 32.9879 34.7594 28.2421 35.1135L28.3212 39.801L25.4962 39.8531L25.415 35.2281C24.6837 35.2406 23.9337 35.249 23.1566 35.2448L23.24 39.8906L20.415 39.9406L20.3316 35.2448L19.5337 35.251C19.1296 35.2531 18.7212 35.2552 18.3129 35.2635L14.6337 35.3261L15.1358 31.9427C15.1358 31.9427 17.2275 31.9385 17.19 31.9073C17.99 31.8906 18.1921 31.3135 18.2358 30.951L18.1087 23.5406L18.3108 23.5365H18.4066C18.3071 23.5251 18.2069 23.5202 18.1066 23.5219L18.015 18.2302C17.8962 17.6594 17.5129 17.001 16.3691 17.0219C16.4004 16.9802 14.315 17.0573 14.315 17.0573L14.2608 14.0406L18.1608 13.974V13.9886C18.7462 13.9781 19.3483 13.9573 19.9587 13.9344L19.8796 9.29064L22.7046 9.24272L22.7837 13.7927C23.5379 13.7656 24.2962 13.7365 25.04 13.724L24.9608 9.20314L27.7879 9.15314L27.8691 13.7969V13.7927Z" fill="white"/>
</svg>
