<svg width="50" height="50" viewBox="0 0 50 50" fill="none" xmlns="http://www.w3.org/2000/svg">
<path d="M25 0C11.1942 0 0 11.1942 0 25C0 38.8058 11.1942 50 25 50C38.8058 50 50 38.8058 50 25C50 11.1942 38.8058 0 25 0ZM26.2444 37.1205L26.2556 38.8895C26.2556 39.135 26.0547 39.3415 25.8092 39.3415H24.2243C23.9788 39.3415 23.7779 39.1406 23.7779 38.8951V37.1429C18.8225 36.7746 16.49 33.9509 16.2388 30.8817C16.2165 30.6194 16.423 30.3962 16.6853 30.3962H19.2634C19.481 30.3962 19.6708 30.5525 19.7042 30.7645C19.9888 32.5335 21.3672 33.856 23.8393 34.1853V26.2221L22.4609 25.8705C19.5424 25.173 16.7634 23.3538 16.7634 19.5815C16.7634 15.5134 19.8549 13.3259 23.8058 12.9408V11.0993C23.8058 10.8538 24.0067 10.6529 24.2522 10.6529H25.8203C26.0658 10.6529 26.2667 10.8538 26.2667 11.0993V12.9241C30.0893 13.3092 32.9576 15.5413 33.2924 19.0179C33.3203 19.2801 33.1138 19.5089 32.846 19.5089H30.3404C30.1172 19.5089 29.9275 19.3415 29.8996 19.1239C29.6763 17.4944 28.3705 16.1663 26.2444 15.8761V23.3705L27.6618 23.6998C31.2779 24.5926 33.7388 26.3225 33.7388 30.1953C33.7388 34.3973 30.6138 36.7411 26.2444 37.1205ZM20.2344 19.3248C20.2344 20.7422 21.1105 21.8415 22.9967 22.5223C23.2589 22.6283 23.5212 22.7121 23.8337 22.8013V15.8817C21.7746 16.144 20.2344 17.2991 20.2344 19.3248ZM26.7355 26.8694C26.5792 26.8359 26.423 26.7969 26.2444 26.7467V34.2076C28.6217 33.9955 30.2623 32.6897 30.2623 30.5022C30.2623 28.7891 29.375 27.673 26.7355 26.8694Z" fill="#0F222D"/>
</svg>
