<svg width="50" height="51" viewBox="0 0 50 51" fill="none" xmlns="http://www.w3.org/2000/svg">
<path d="M24.8192 0.00862997C24.7379 0.023316 24.6576 0.0432291 24.5788 0.0682453C24.1447 0.165556 23.7577 0.410406 23.4838 0.76107C23.21 1.11173 23.0662 1.54651 23.0769 1.99132V3.9144H5.76923C4.23914 3.9144 2.77171 4.52223 1.68977 5.60417C0.607828 6.68611 0 8.15353 0 9.68363L0 34.6836C0 37.8682 2.58462 40.4529 5.76923 40.4529H23.0769V41.174L12.6192 46.4029C12.1571 46.626 11.8026 47.0236 11.6337 47.5081C11.4647 47.9926 11.4951 48.5244 11.7183 48.9865C11.9414 49.4486 12.339 49.8031 12.8235 49.9721C13.308 50.1411 13.8398 50.1106 14.3019 49.8875L23.0769 45.5009V46.2221C23.0769 46.7321 23.2795 47.2213 23.6402 47.5819C24.0008 47.9426 24.49 48.1452 25 48.1452C25.51 48.1452 25.9992 47.9426 26.3598 47.5819C26.7205 47.2213 26.9231 46.7321 26.9231 46.2221V45.5009L35.6981 49.8875C36.1602 50.1106 36.692 50.1411 37.1765 49.9721C37.661 49.8031 38.0586 49.4486 38.2817 48.9865C38.5049 48.5244 38.5353 47.9926 38.3663 47.5081C38.1974 47.0236 37.8429 46.626 37.3808 46.4029L26.9231 41.174V40.4529H44.2308C47.4154 40.4529 50 37.8682 50 34.6836V9.68363C50 8.15353 49.3922 6.68611 48.3102 5.60417C47.2283 4.52223 45.7609 3.9144 44.2308 3.9144H26.9231V1.99132C26.9328 1.71786 26.884 1.44547 26.78 1.19235C26.6761 0.939239 26.5193 0.711229 26.3201 0.523557C26.121 0.335884 25.8841 0.192871 25.6253 0.104073C25.3664 0.0152746 25.0916 -0.0172644 24.8192 0.00862997V0.00862997ZM3.84615 9.68363H46.1538V34.6836H3.84615V9.68363ZM40.1442 11.6067C39.7135 11.653 39.3109 11.8434 39.0019 12.1471L32.6923 18.4586L28.3058 14.0682C28.0957 13.8527 27.838 13.6895 27.5533 13.5917C27.2686 13.4939 26.965 13.4643 26.6668 13.5053C26.3686 13.5462 26.0842 13.6566 25.8365 13.8276C25.5887 13.9985 25.3845 14.2252 25.2404 14.4894L19.5308 24.4663L17.1865 18.5759C17.0727 18.2718 16.8837 18.0014 16.6372 17.7901C16.3906 17.5787 16.0946 17.4332 15.7766 17.3672C15.4587 17.3011 15.1292 17.3167 14.8188 17.4124C14.5085 17.508 14.2275 17.6808 14.0019 17.9144L8.23269 23.6836C7.86547 24.0506 7.65906 24.5484 7.65888 25.0676C7.6587 25.5867 7.86476 26.0847 8.23173 26.4519C8.5987 26.8191 9.09651 27.0255 9.61567 27.0257C10.1348 27.0259 10.6328 26.8198 11 26.4529L14.6654 22.7875L17.4308 29.6375C17.5613 29.981 17.7875 30.28 18.0827 30.4989C18.3778 30.7179 18.7295 30.8477 19.0961 30.873C19.4628 30.8983 19.829 30.818 20.1514 30.6417C20.4738 30.4653 20.7389 30.2002 20.9154 29.8779L27.3462 18.6394L31.3115 22.6067C31.4909 22.7922 31.7057 22.9398 31.9433 23.0405C32.1808 23.1413 32.4362 23.1932 32.6942 23.1932C32.9523 23.1932 33.2077 23.1413 33.4452 23.0405C33.6827 22.9398 33.8976 22.7922 34.0769 22.6067L41.7692 14.9144C42.073 14.6332 42.2779 14.2614 42.3535 13.8544C42.4291 13.4474 42.3714 13.0268 42.1888 12.6553C42.0063 12.2837 41.7087 11.981 41.3403 11.792C40.972 11.6031 40.5525 11.5381 40.1442 11.6067Z" fill="white"/>
</svg>
