<svg width="50" height="50" viewBox="0 0 50 50" fill="none" xmlns="http://www.w3.org/2000/svg">
<path d="M39.0625 5.2832C45.2149 9.67773 49.2188 16.8652 49.2188 25C49.2188 38.3594 38.3985 49.1895 25.0488 49.2188C11.7188 49.248 0.800799 38.3789 0.781268 25.0391C0.771502 16.9043 4.77541 9.69727 10.918 5.29297C12.0606 4.48242 13.6524 4.82422 14.336 6.04492L15.8789 8.78906C16.4551 9.81445 16.1817 11.1133 15.2344 11.8164C11.1817 14.8242 8.59377 19.5898 8.59377 24.9902C8.584 34.0039 15.8692 41.4062 25 41.4062C33.9453 41.4062 41.4649 34.1602 41.4063 24.8926C41.377 19.834 38.9942 14.9512 34.7559 11.8066C33.8086 11.1035 33.5449 9.80469 34.1211 8.78906L35.6641 6.04492C36.3477 4.83398 37.9297 4.47266 39.0625 5.2832ZM28.9063 25.7812V2.34375C28.9063 1.04492 27.8613 0 26.5625 0H23.4375C22.1387 0 21.0938 1.04492 21.0938 2.34375V25.7812C21.0938 27.0801 22.1387 28.125 23.4375 28.125H26.5625C27.8613 28.125 28.9063 27.0801 28.9063 25.7812Z" fill="#BA3521"/>
</svg>
