<svg width="194" height="40" viewBox="0 0 194 40" fill="none" xmlns="http://www.w3.org/2000/svg">
<path d="M27.4219 3.63839C26.6797 3.86161 26.0482 4.40848 25.5273 5.27902C25.0065 6.14955 24.7461 7.09821 24.7461 8.125C24.7461 9.00298 24.7754 10.3646 24.834 12.2098C24.8926 14.0551 24.9219 15.4018 24.9219 16.25C24.9219 17.3214 24.8372 18.244 24.668 19.0179C24.4987 19.7917 24.2806 20.4167 24.0137 20.8929C23.7467 21.369 23.3854 21.7634 22.9297 22.0759C22.474 22.3884 22.0215 22.6153 21.5723 22.7567C21.123 22.8981 20.5664 23.0283 19.9023 23.1473C20.4622 22.0312 20.7422 20.8259 20.7422 19.5313C20.7422 18.2366 20.5143 16.901 20.0586 15.5246C19.6029 14.1481 19.0658 12.8943 18.4473 11.7634C17.8288 10.6324 17.181 9.67262 16.5039 8.88393C17.793 7.1131 19.2643 5.78497 20.918 4.89955C22.5716 4.01414 24.7396 3.59375 27.4219 3.63839ZM16.25 24.2857C18.2682 23.7351 19.2839 22.247 19.2969 19.8214C19.3099 18.7946 19.1406 17.6935 18.7891 16.5179C18.4375 15.3423 17.9395 14.1667 17.2949 12.9911C16.6504 11.8155 15.8333 10.6882 14.8437 9.60938C13.8542 8.53051 12.7669 7.57813 11.582 6.75223C10.3971 5.92634 9.03971 5.2753 7.50977 4.79911C5.97982 4.32292 4.40104 4.0997 2.77344 4.12946C3.5026 4.35268 4.13086 4.9814 4.6582 6.01563C5.18555 7.04985 5.44922 8.09524 5.44922 9.15179C5.44922 10.0446 5.41992 11.3244 5.36133 12.9911C5.30273 14.6577 5.27344 15.9077 5.27344 16.7411C5.27344 17.7381 5.4362 18.657 5.76172 19.4978C6.08724 20.3385 6.52669 21.0491 7.08008 21.6295C7.63346 22.2098 8.27474 22.7009 9.00391 23.1027C9.73307 23.5045 10.498 23.8021 11.2988 23.9955C12.0996 24.189 12.9167 24.2857 13.75 24.2857V30C13.3464 29.4345 12.6725 28.8616 11.7285 28.2813C10.7845 27.7009 9.77214 27.2098 8.69141 26.808C7.15495 26.2128 5.52409 25.9412 3.79883 25.9933C2.07357 26.0454 0.807292 26.4286 0 27.1429C1.86198 29.9107 4.06901 31.6964 6.62109 32.5C9.17318 33.3036 11.5495 32.9464 13.75 31.4286V39.2411C13.75 39.4494 13.8021 39.628 13.9062 39.7768C14.0104 39.9256 14.1536 40 14.3359 40H15.6641C15.8464 40 15.9896 39.9256 16.0938 39.7768C16.1979 39.628 16.25 39.4494 16.25 39.2411V35.7143C17.4219 36.3244 18.6491 36.6481 19.9316 36.6853C21.2142 36.7225 22.4577 36.4955 23.6621 36.0045C24.8665 35.5134 26.0221 34.7545 27.1289 33.7277C28.2357 32.7009 29.1927 31.4583 30 30C29.375 29.5685 28.5645 29.2262 27.5684 28.9732C26.5723 28.7202 25.4622 28.6272 24.2383 28.6942C23.0143 28.7612 21.9141 29.0327 20.9375 29.5089C20.1172 29.9107 19.2708 30.5543 18.3984 31.4397C17.526 32.3251 16.8099 33.1771 16.25 33.9955V24.2857ZM22.7344 2.16518C22.7344 2.50744 22.4121 2.87946 21.7676 3.28125C21.123 3.68304 20.3451 4.07738 19.4336 4.46429C18.5221 4.85119 18.0208 5.0744 17.9297 5.13393C17.9687 4.77679 17.8353 4.4494 17.5293 4.15179C17.2233 3.85417 16.875 3.63467 16.4844 3.4933C16.0937 3.35193 15.7259 3.21801 15.3809 3.09152C15.0358 2.96503 14.8568 2.87202 14.8437 2.8125C14.7786 2.63393 15.1139 2.5186 15.8496 2.46652C16.5853 2.41443 17.3242 2.36979 18.0664 2.33259C18.8086 2.29539 19.1602 2.20238 19.1211 2.05357C19.0951 1.96429 19.0137 1.88616 18.877 1.8192C18.7402 1.75223 18.5579 1.69643 18.3301 1.65179C18.1022 1.60714 17.8613 1.56994 17.6074 1.54018C17.3535 1.51042 17.0801 1.4881 16.7871 1.47321C16.4941 1.45833 16.2402 1.44717 16.0254 1.43973L15.3809 1.41741L15 1.40625C14.4922 1.37649 13.6784 1.42113 12.5586 1.54018C11.4388 1.65923 10.9049 1.84524 10.957 2.09821C10.9961 2.30655 11.3281 2.52976 11.9531 2.76786C12.5781 3.00595 13.252 3.22545 13.9746 3.42634C14.6973 3.62723 15.3581 3.91369 15.957 4.28571C16.556 4.65774 16.8555 5.08185 16.8555 5.55804C16.8555 5.72173 16.8424 5.85937 16.8164 5.97098C16.7904 6.08259 16.7253 6.20908 16.6211 6.35045C16.5169 6.49182 16.4258 6.61086 16.3477 6.70759C16.2695 6.80432 16.1133 6.96801 15.8789 7.19866C15.6445 7.42932 15.4492 7.63393 15.293 7.8125C14.707 7.1131 14.0495 6.5253 13.3203 6.04911C12.5911 5.57292 11.6341 5.21577 10.4492 4.97768C9.5638 4.78423 8.83464 4.45685 8.26172 3.99554C7.6888 3.53423 7.40234 3.02083 7.40234 2.45536C7.40234 2.06845 7.54883 1.72991 7.8418 1.43973C8.13477 1.14955 8.54167 0.918899 9.0625 0.747768C9.58333 0.576637 10.1042 0.435268 10.625 0.323661C11.1458 0.212054 11.735 0.137649 12.3926 0.100446C13.0501 0.063244 13.5514 0.0372024 13.8965 0.0223214C14.2415 0.00744048 14.6094 0 15 0C20.1563 0 22.7344 0.721726 22.7344 2.16518Z" fill="#DC4618"/>
<path d="M35.52 32L32.4 28.7V15.8L35.52 12.5H43.98L47.1 15.8V28.7L43.98 32H35.52ZM36.69 29.42H42.78L44.34 27.83V16.67L42.81 15.08H36.72L35.16 16.67V27.83L36.69 29.42ZM53.4117 12.5H66.1917L69.3117 15.8V28.7L66.1917 32H53.4117V29.6H55.5117V14.9H53.4117V12.5ZM58.2717 29.42H64.9917L66.5517 27.83V16.67L65.0217 15.08H58.2717V29.42ZM75.6246 12.5H88.4046L91.5246 15.8V28.7L88.4046 32H75.6246V29.6H77.7246V14.9H75.6246V12.5ZM80.4846 29.42H87.2046L88.7646 27.83V16.67L87.2346 15.08H80.4846V29.42ZM111.038 16.58H108.548V13.94L106.748 12.08H102.158L100.598 13.67V17.81L102.068 19.31H108.308L111.338 22.49V28.7L108.218 32H100.658L97.5375 28.7V24.92H100.028V27.56L101.858 29.42H107.048L108.578 27.83V23.36L107.138 21.89H100.898L97.8375 18.68V12.8L100.958 9.5H107.918L111.038 12.8V16.58ZM117.326 9.5H129.326L132.446 12.8V19.7L129.326 23H122.186V29.6H124.586V32H117.326V29.6H119.426V11.9H117.326V9.5ZM122.186 12.08V20.42H128.126L129.866 18.65V13.85L128.156 12.08H122.186ZM139.649 9.5H147.659V11.9H146.279L151.559 29.6H153.059V32H146.699V29.6H148.799L147.419 24.98H139.889L138.509 29.6H140.609V32H134.249V29.6H135.749L141.029 11.9H139.649V9.5ZM143.639 12.35L140.609 22.58H146.699L143.639 12.35ZM168.816 24.92H171.216V28.7L168.096 32H160.536L157.416 28.7V12.8L160.536 9.5H168.096L171.216 12.8V16.58H168.816V14.03L166.926 12.08H161.736L160.176 13.67V27.83L161.706 29.42H166.896L168.816 27.47V24.92ZM176.904 9.5H191.184V15.38H188.784V11.9H181.764V19.55H188.784V21.95H181.764V29.6H188.784V26.12H191.184V32H176.904V29.6H179.004V11.9H176.904V9.5Z" fill="#0F222D"/>
</svg>
