<svg width="50" height="50" viewBox="0 0 50 50" fill="none" xmlns="http://www.w3.org/2000/svg">
<path d="M49.9996 0L13.4204 44.4947C10.3871 48.1609 7.8392 50 5.77878 50C3.44545 50 1.7517 47.6669 0.701695 42.9949C0.0412788 39.9952 -0.152471 36.1921 0.118362 31.5796C0.389195 26.967 1.11003 22.0569 2.2767 16.8313C3.24961 12.6056 4.84336 7.05273 7.06211 0.166646C6.30954 3.55116 5.75768 7.26734 5.42878 11.1653C4.84545 18.2776 5.37045 23.4972 7.00378 26.8301C7.78086 28.3835 8.84961 29.1632 10.2121 29.1632C11.2996 29.1632 12.5246 28.6633 13.8871 27.6634L49.9996 0Z" fill="#0F222D"/>
</svg>
