<svg width="40" height="40" viewBox="0 0 40 40" fill="none" xmlns="http://www.w3.org/2000/svg">
<path d="M38.6708 15L35.9365 12.3047L24.8431 23.4375C24.7129 23.8021 24.5306 24.1016 24.2962 24.3359C23.7754 24.8568 23.1374 25.0651 22.3822 24.9609C21.7051 24.987 21.1322 24.7656 20.6635 24.2969C20.4291 24.0885 20.2599 23.8151 20.1557 23.4766L18.7104 22.0312C18.6583 22.1094 17.9487 22.8971 16.5816 24.3945C15.2144 25.8919 14.4658 26.7057 14.3355 26.8359C13.8147 27.3568 13.1637 27.5651 12.3825 27.4609C11.7054 27.487 11.1325 27.2656 10.6638 26.7969C10.4294 26.5885 10.2601 26.3151 10.156 25.9766L9.96067 25.7812L5.19517 30.5469C5.16913 30.5729 5.13658 30.599 5.09752 30.625C5.05846 30.651 5.02591 30.6771 4.99986 30.7031V35H37.499C38.176 35 38.762 35.2474 39.2567 35.7422C39.7515 36.237 39.9989 36.8294 39.9989 37.5195C39.9989 38.2096 39.7515 38.7956 39.2567 39.2773C38.762 39.7591 38.176 40 37.499 40H2.49993C1.79683 40 1.20439 39.7591 0.722637 39.2773C0.240879 38.7956 0 38.2031 0 37.5V2.5C0 1.82292 0.240879 1.23698 0.722637 0.742188C1.20439 0.247396 1.79032 0 2.4804 0C3.17049 0 3.76292 0.247396 4.2577 0.742188C4.75248 1.23698 4.99986 1.82292 4.99986 2.5V24.1797L7.65604 21.5234C7.76021 21.2109 7.92947 20.9375 8.16384 20.7031C8.63258 20.2344 9.20548 20.013 9.88254 20.0391C10.6377 19.9609 11.2757 20.1693 11.7966 20.6641C12.0309 20.8984 12.2132 21.2109 12.3434 21.6016L12.4606 21.7188L16.4058 17.7734C16.51 17.4609 16.6792 17.1875 16.9136 16.9531C17.3823 16.4844 17.9552 16.263 18.6323 16.2891C19.4135 16.2109 20.0515 16.4193 20.5463 16.9141C20.7807 17.1484 20.963 17.4609 21.0932 17.8516L22.4603 19.2188L32.6554 9.02344L29.9992 6.36719C29.9731 5.42969 30.2596 4.97396 30.8585 5H38.749C39.1135 5.02604 39.4065 5.14974 39.6278 5.37109C39.8492 5.59245 39.9729 5.88542 39.9989 6.25V14.1406C40.025 14.7656 39.5823 15.0521 38.6708 15Z" fill="white"/>
</svg>
