<svg width="50" height="50" viewBox="0 0 50 50" fill="none" xmlns="http://www.w3.org/2000/svg">
<path d="M25 11.1708L30.1562 4.86667C30.1562 4.86667 39 5.05417 47.8042 9.14583C45.55 12.5542 41.0729 14.225 41.0729 14.225C40.7687 11.2271 38.6687 10.4958 32.0021 10.4958L25 50L17.9563 10.4875C11.3313 10.4875 9.23125 11.225 8.925 14.2208C8.925 14.2208 4.45417 12.5646 2.19792 9.15833C11 5.06458 19.8437 4.875 19.8437 4.875L25 11.1708L24.9917 11.175H25V11.1708ZM25 3.04792C32.1146 2.98542 40.2625 4.14792 48.6 7.79792C49.7146 5.78125 50 4.89167 50 4.89167C40.8854 1.275 32.35 0.03125 25 0C17.65 0.03125 9.11458 1.27083 0 4.89375C0 4.89375 0.40625 5.9875 1.4 7.80208C9.7375 4.14375 17.8854 2.98958 25 3.04167V3.04792V3.04792Z" fill="#0F222D"/>
</svg>
